<?xml version="1.0" encoding="UTF-8"?>
<!DOCTYPE svg PUBLIC "-//W3C//DTD SVG 1.1//EN" "http://www.w3.org/Graphics/SVG/1.1/DTD/svg11.dtd">
<svg xmlns="http://www.w3.org/2000/svg" version="1.1" width="1259px" height="564px" style="shape-rendering:geometricPrecision; text-rendering:geometricPrecision; image-rendering:optimizeQuality; fill-rule:evenodd; clip-rule:evenodd" xmlns:xlink="http://www.w3.org/1999/xlink">
<g><path style="opacity:0.5" fill="#324554" d="M 259.5,43.5 C 263.182,43.3347 266.848,43.5014 270.5,44C 272.049,45.214 273.215,46.714 274,48.5C 274.333,132.833 274.667,217.167 275,301.5C 285.131,289.7 295.631,278.2 306.5,267C 308.433,266.217 309.933,266.717 311,268.5C 317.926,320.91 325.259,373.243 333,425.5C 346.537,438.039 360.37,450.206 374.5,462C 379.727,460.898 384.727,458.898 389.5,456C 439.917,426.19 473.584,383.19 490.5,327C 499.167,326.333 507.833,326.333 516.5,327C 518.007,328.473 518.674,330.307 518.5,332.5C 498.391,408.782 452.391,463.282 380.5,496C 357.093,505.768 332.76,511.935 307.5,514.5C 304.821,514.064 302.155,513.564 299.5,513C 298.299,512.097 297.465,510.931 297,509.5C 296.667,480.5 296.333,451.5 296,422.5C 295.234,403.107 293.9,383.774 292,364.5C 276.862,378.637 262.029,393.137 247.5,408C 245.866,408.494 244.199,408.66 242.5,408.5C 241.027,368.827 239.361,329.16 237.5,289.5C 225.358,298.475 213.358,307.642 201.5,317C 199.559,317.743 197.726,317.576 196,316.5C 189.614,249.535 183.614,182.535 178,115.5C 177.798,113.744 177.298,112.078 176.5,110.5C 157.39,125.809 138.556,141.476 120,157.5C 113.587,206.382 108.087,255.382 103.5,304.5C 101.692,304.509 100.025,304.009 98.5,303C 83.3663,286.198 67.8663,269.698 52,253.5C 51.4818,238.085 53.8151,223.085 59,208.5C 86.8468,129.986 140.347,77.8194 219.5,52C 232.832,48.4953 246.165,45.6619 259.5,43.5 Z"/></g>
<g><path style="opacity:0.499" fill="#314554" d="M 300.5,43.5 C 349.75,46.3034 393.75,62.8034 432.5,93C 498.482,145.485 528.648,213.985 523,298.5C 522.535,299.931 521.701,301.097 520.5,302C 511.567,304.157 502.733,303.991 494,301.5C 498.739,211.999 462.572,144.832 385.5,100C 358.103,85.7559 329.103,76.7559 298.5,73C 297.874,72.2496 297.374,71.4162 297,70.5C 296.333,62.8333 296.333,55.1667 297,47.5C 297.69,45.6498 298.856,44.3164 300.5,43.5 Z"/></g>
<g><path style="opacity:1" fill="#364554" d="M 260.5,45.5 C 263.518,45.3354 266.518,45.502 269.5,46C 270.701,46.9025 271.535,48.0692 272,49.5C 272.333,134.5 272.667,219.5 273,304.5C 273.333,304.833 273.667,305.167 274,305.5C 284.965,292.867 296.298,280.533 308,268.5C 308.333,268.833 308.667,269.167 309,269.5C 315.926,321.91 323.259,374.243 331,426.5C 344.87,439.372 359.036,451.872 373.5,464C 375.167,464.667 376.833,464.667 378.5,464C 427.09,439.077 462.256,401.577 484,351.5C 487.006,343.981 489.506,336.314 491.5,328.5C 499.507,328.334 507.507,328.5 515.5,329C 516.622,332.485 516.456,335.985 515,339.5C 487.13,427.369 428.63,483.202 339.5,507C 328.918,509.345 318.251,511.178 307.5,512.5C 305.181,511.936 302.847,511.436 300.5,511C 299.874,510.25 299.374,509.416 299,508.5C 298.667,479.5 298.333,450.5 298,421.5C 297.14,401.459 295.807,381.459 294,361.5C 293.667,361.167 293.333,360.833 293,360.5C 277.015,375.652 261.181,390.985 245.5,406.5C 244.679,403.553 244.179,400.553 244,397.5C 242.887,360.41 241.22,323.41 239,286.5C 225.937,295.024 213.104,304.524 200.5,315C 199.552,315.483 198.552,315.649 197.5,315.5C 191.612,248.512 185.779,181.512 180,114.5C 179.882,111.629 179.216,108.962 178,106.5C 157.815,122.928 137.815,139.595 118,156.5C 111.791,203.711 106.458,251.045 102,298.5C 101.751,299.624 101.251,300.624 100.5,301.5C 85.2104,285.042 69.7104,268.708 54,252.5C 54.5116,230.949 59.1782,210.282 68,190.5C 98.1448,121.851 148.978,76.3506 220.5,54C 233.832,50.4953 247.165,47.6619 260.5,45.5 Z"/></g>
<g><path style="opacity:1" fill="#364554" d="M 301.5,45.5 C 380.7,53.2616 442.534,89.9283 487,155.5C 515.289,199.814 526.122,247.981 519.5,300C 511.529,301.787 503.529,301.954 495.5,300.5C 500.445,210.546 464.112,143.046 386.5,98C 359.466,83.8218 330.8,74.9885 300.5,71.5C 299.808,70.9747 299.308,70.3081 299,69.5C 298.333,62.5 298.333,55.5 299,48.5C 299.698,47.3094 300.531,46.3094 301.5,45.5 Z"/></g>
<g><path style="opacity:0.497" fill="#304554" d="M 301.5,93.5 C 343.12,95.7514 379.287,110.751 410,138.5C 414.127,149.915 410.127,155.582 398,155.5C 391.743,155.082 385.577,154.082 379.5,152.5C 373.94,152.772 370.606,155.606 369.5,161C 369.78,162.395 370.447,163.562 371.5,164.5C 378.536,166.678 385.369,169.345 392,172.5C 394.785,179.959 396.118,187.626 396,195.5C 392.604,199.203 388.437,200.369 383.5,199C 377.792,194.805 372.459,190.138 367.5,185C 359.042,181.718 350.375,179.051 341.5,177C 339.714,176.215 338.214,175.049 337,173.5C 335.381,168.635 333.381,163.968 331,159.5C 324.73,154.382 318.73,149.049 313,143.5C 312.955,136.429 313.788,129.429 315.5,122.5C 310.494,115.178 304.994,108.178 299,101.5C 297.837,98.0289 298.67,95.3623 301.5,93.5 Z"/></g>
<g><path style="opacity:1" fill="#364554" d="M 302.5,95.5 C 342.818,98.206 377.984,112.873 408,139.5C 411.042,145.663 409.542,150.163 403.5,153C 395.378,153.544 387.378,152.711 379.5,150.5C 369.651,151.726 366.318,156.893 369.5,166C 374.995,168.458 380.662,170.458 386.5,172C 388.223,172.523 389.556,173.523 390.5,175C 392.069,180.444 393.403,185.944 394.5,191.5C 393.189,196.661 389.855,198.495 384.5,197C 378.792,192.805 373.459,188.138 368.5,183C 360.042,179.718 351.375,177.051 342.5,175C 341.069,174.535 339.903,173.701 339,172.5C 337.381,167.635 335.381,162.968 333,158.5C 326.949,153.109 320.949,147.776 315,142.5C 315.775,134.848 316.442,127.181 317,119.5C 311.904,112.981 306.571,106.648 301,100.5C 300.36,98.4567 300.86,96.7901 302.5,95.5 Z"/></g>
<g><path style="opacity:1" fill="#364454" d="M 748.5,107.5 C 758.167,107.5 767.833,107.5 777.5,107.5C 775.834,116.832 774.167,126.166 772.5,135.5C 762.833,135.5 753.167,135.5 743.5,135.5C 744.911,126.112 746.578,116.779 748.5,107.5 Z"/></g>
<g><path style="opacity:1" fill="#364454" d="M 788.5,107.5 C 798.167,107.5 807.833,107.5 817.5,107.5C 816.53,116.82 814.864,125.986 812.5,135C 803.173,135.5 793.839,135.666 784.5,135.5C 785.703,126.152 787.036,116.818 788.5,107.5 Z"/></g>
<g><path style="opacity:0.498" fill="#324454" d="M 623.5,111.5 C 645.206,111.068 666.873,111.568 688.5,113C 701.777,116.61 709.944,125.11 713,138.5C 716.268,172.315 701.768,194.315 669.5,204.5C 679.411,221.397 688.411,238.73 696.5,256.5C 684.482,256.832 672.482,256.499 660.5,255.5C 652.333,239.167 644.167,222.833 636,206.5C 632.895,222.857 629.728,239.191 626.5,255.5C 616.856,256.498 607.19,256.832 597.5,256.5C 605.651,208.08 614.317,159.746 623.5,111.5 Z M 648.5,139.5 C 654.842,139.334 661.175,139.5 667.5,140C 678.946,141.1 684.113,147.267 683,158.5C 680.573,168.593 674.406,175.093 664.5,178C 656.881,179.205 649.214,179.705 641.5,179.5C 643.319,166.071 645.653,152.737 648.5,139.5 Z"/></g>
<g><path style="opacity:1" fill="#364454" d="M 625.5,113.5 C 646.207,113.072 666.873,113.572 687.5,115C 700.446,118.279 708.279,126.446 711,139.5C 713.561,173.082 698.727,194.416 666.5,203.5C 675.5,220.167 684.5,236.833 693.5,253.5C 683.183,254.666 672.849,254.832 662.5,254C 653.794,236.755 644.961,219.588 636,202.5C 635.333,203.167 634.667,203.833 634,204.5C 631,220.833 628,237.167 625,253.5C 616.585,254.483 608.085,254.817 599.5,254.5C 607.911,207.445 616.578,160.445 625.5,113.5 Z M 648.5,139.5 C 645.653,152.737 643.319,166.071 641.5,179.5C 649.214,179.705 656.881,179.205 664.5,178C 674.406,175.093 680.573,168.593 683,158.5C 684.113,147.267 678.946,141.1 667.5,140C 661.175,139.5 654.842,139.334 648.5,139.5 Z"/></g>
<g><path style="opacity:1" fill="#364454" d="M 853.5,111.5 C 863.167,111.5 872.833,111.5 882.5,111.5C 880.5,123.5 878.5,135.5 876.5,147.5C 881.5,147.5 886.5,147.5 891.5,147.5C 890.067,155.833 888.567,164.166 887,172.5C 881.452,172.857 876.119,173.857 871,175.5C 865.842,202.455 861.009,229.455 856.5,256.5C 846.833,256.5 837.167,256.5 827.5,256.5C 831.798,228.846 836.798,201.346 842.5,174C 838.514,173.501 834.514,173.334 830.5,173.5C 831.187,164.731 832.521,156.064 834.5,147.5C 838.833,147.5 843.167,147.5 847.5,147.5C 849.371,135.479 851.371,123.479 853.5,111.5 Z"/></g>
<g><path style="opacity:1" fill="#364454" d="M 913.5,111.5 C 923.167,111.5 932.833,111.5 942.5,111.5C 940.5,123.5 938.5,135.5 936.5,147.5C 941.5,147.5 946.5,147.5 951.5,147.5C 950.067,155.833 948.567,164.166 947,172.5C 941.452,172.857 936.119,173.857 931,175.5C 925.842,202.455 921.009,229.455 916.5,256.5C 906.833,256.5 897.167,256.5 887.5,256.5C 891.798,228.846 896.798,201.346 902.5,174C 898.514,173.501 894.514,173.334 890.5,173.5C 891.187,164.731 892.521,156.064 894.5,147.5C 898.833,147.5 903.167,147.5 907.5,147.5C 909.371,135.479 911.371,123.479 913.5,111.5 Z"/></g>
<g><path style="opacity:1" fill="#364454" d="M 1089.5,111.5 C 1099.17,111.5 1108.83,111.5 1118.5,111.5C 1109.83,159.833 1101.17,208.167 1092.5,256.5C 1082.83,256.5 1073.17,256.5 1063.5,256.5C 1072.06,208.151 1080.72,159.818 1089.5,111.5 Z"/></g>
<g><path style="opacity:0.498" fill="#324454" d="M 1001.5,145.5 C 1020.12,142.311 1036.29,146.977 1050,159.5C 1058.87,171.389 1062.21,184.722 1060,199.5C 1059.59,204.874 1058.43,210.04 1056.5,215C 1028.83,215.333 1001.17,215.667 973.5,216C 977.346,227.325 985.346,233.158 997.5,233.5C 1006.54,233.544 1014.21,230.377 1020.5,224C 1031.16,223.5 1041.83,223.333 1052.5,223.5C 1051.85,227.14 1050.35,230.473 1048,233.5C 1028.26,256.966 1003.43,264.799 973.5,257C 954.004,249.209 944.004,234.709 943.5,213.5C 946.723,176.953 966.056,154.287 1001.5,145.5 Z M 1004.5,171.5 C 1013.92,170.559 1022.09,173.226 1029,179.5C 1031.08,182.748 1032.58,186.248 1033.5,190C 1015.17,190.667 996.833,190.667 978.5,190C 984.567,180.088 993.234,173.922 1004.5,171.5 Z"/></g>
<g><path style="opacity:0.498" fill="#334454" d="M 726.5,147.5 C 736.167,147.5 745.833,147.5 755.5,147.5C 751.509,170.285 747.843,193.118 744.5,216C 743.141,226.973 747.974,232.807 759,233.5C 775.044,231.121 784.044,221.787 786,205.5C 789.696,186.19 793.196,166.857 796.5,147.5C 806.167,147.5 815.833,147.5 825.5,147.5C 819.196,183.189 812.696,218.855 806,254.5C 797.099,256.456 787.932,257.122 778.5,256.5C 779.014,254.488 779.18,252.488 779,250.5C 773.501,254.672 767.334,257.505 760.5,259C 751.438,259.881 742.438,259.548 733.5,258C 724.599,254.765 718.766,248.598 716,239.5C 715.028,235.194 714.194,230.86 713.5,226.5C 717.293,200.077 721.626,173.743 726.5,147.5 Z"/></g>
<g><path style="opacity:1" fill="#364454" d="M 1002.5,147.5 C 1019.86,144.727 1035.03,149.06 1048,160.5C 1056.63,171.732 1059.96,184.399 1058,198.5C 1057.36,203.545 1056.52,208.545 1055.5,213.5C 1027.83,213.333 1000.16,213.5 972.5,214C 972.217,221.783 975.551,227.783 982.5,232C 996.816,238.061 1009.82,236.061 1021.5,226C 1031.17,225.333 1040.83,225.333 1050.5,226C 1033.01,252.173 1008.68,262.173 977.5,256C 954.613,248.076 944.113,231.909 946,207.5C 951.692,174.978 970.525,154.978 1002.5,147.5 Z M 1004.5,171.5 C 993.234,173.922 984.567,180.088 978.5,190C 996.833,190.667 1015.17,190.667 1033.5,190C 1032.58,186.248 1031.08,182.748 1029,179.5C 1022.09,173.226 1013.92,170.559 1004.5,171.5 Z"/></g>
<g><path style="opacity:1" fill="#364554" d="M 728.5,149.5 C 736.86,149.169 745.193,149.502 753.5,150.5C 749.894,169.132 746.394,187.799 743,206.5C 738.727,231.568 748.561,240.068 772.5,232C 781.599,225.982 786.766,217.482 788,206.5C 791.567,187.499 795.067,168.499 798.5,149.5C 806.86,149.169 815.193,149.502 823.5,150.5C 816.682,184.759 810.182,219.092 804,253.5C 796.587,254.481 789.087,254.814 781.5,254.5C 781.318,252.409 781.652,250.409 782.5,248.5C 782.192,247.692 781.692,247.025 781,246.5C 767.195,257.38 751.695,260.546 734.5,256C 725.93,253.096 720.43,247.263 718,238.5C 717.119,234.496 716.286,230.496 715.5,226.5C 719.291,200.757 723.624,175.09 728.5,149.5 Z"/></g>
<g><path style="opacity:0.499" fill="#324554" d="M 153.5,158.5 C 155.167,158.5 156.833,158.5 158.5,158.5C 164.864,225.806 171.031,293.14 177,360.5C 177.423,361.956 178.256,362.456 179.5,362C 190.394,352.641 201.894,344.141 214,336.5C 214.772,336.645 215.439,336.978 216,337.5C 218.074,379.831 220.074,422.164 222,464.5C 237.529,449.305 252.696,433.805 267.5,418C 269.345,416.872 271.345,416.372 273.5,416.5C 273.667,448.168 273.5,479.835 273,511.5C 270.478,513.181 267.645,514.181 264.5,514.5C 187.055,505.153 126.889,468.153 84,403.5C 61.4966,368.152 49.9966,329.485 49.5,287.5C 53.2727,286.822 56.106,288.156 58,291.5C 79.3702,314.535 100.37,337.868 121,361.5C 127.666,298.17 134.333,234.836 141,171.5C 144.697,166.638 148.864,162.304 153.5,158.5 Z"/></g>
<g><path style="opacity:1" fill="#364554" d="M 154.5,160.5 C 155.586,160.62 156.253,161.287 156.5,162.5C 163.001,230.174 169.501,297.841 176,365.5C 176.333,365.833 176.667,366.167 177,366.5C 188.868,356.442 201.368,347.442 214.5,339.5C 216.148,382.172 217.982,424.839 220,467.5C 220.333,467.833 220.667,468.167 221,468.5C 237.721,451.779 254.387,435.113 271,418.5C 271.667,449.167 271.667,479.833 271,510.5C 268.876,511.227 266.709,511.894 264.5,512.5C 182.563,501.976 120.73,461.309 79,390.5C 61.2374,359.114 52.4041,325.447 52.5,289.5C 76.1915,314.358 99.3581,339.691 122,365.5C 122.333,365.167 122.667,364.833 123,364.5C 129.535,300.486 136.201,236.486 143,172.5C 146.364,167.971 150.197,163.971 154.5,160.5 Z"/></g>
<g><path style="opacity:0.497" fill="#324554" d="M 406.5,202.5 C 409.91,202.457 413.243,202.957 416.5,204C 428.95,209.058 441.283,214.391 453.5,220C 454.333,220.833 455.167,221.667 456,222.5C 458.002,229.178 460.002,235.845 462,242.5C 467.809,248.398 473.809,254.065 480,259.5C 481.483,262.702 481.817,266.036 481,269.5C 477.943,280.675 474.11,291.508 469.5,302C 433.167,302.667 396.833,302.667 360.5,302C 356.329,298.146 355.496,293.646 358,288.5C 365.103,280.642 372.436,272.975 380,265.5C 379.455,256.762 378.121,248.095 376,239.5C 375.333,236.5 375.333,233.5 376,230.5C 386.063,220.932 396.229,211.599 406.5,202.5 Z"/></g>
<g><path style="opacity:1" fill="#364554" d="M 407.5,204.5 C 422.947,209.041 437.947,214.874 452.5,222C 455.579,228.902 458.079,236.069 460,243.5C 465.698,249.532 471.698,255.199 478,260.5C 479.422,263.03 479.755,265.697 479,268.5C 475.893,279.153 472.393,289.653 468.5,300C 432.833,300.667 397.167,300.667 361.5,300C 358.277,296.888 357.777,293.388 360,289.5C 367.65,281.016 375.484,272.682 383.5,264.5C 380.561,253.646 378.728,242.646 378,231.5C 387.729,222.265 397.563,213.265 407.5,204.5 Z"/></g>
<g><path style="opacity:0.498" fill="#324454" d="M 623.5,305.5 C 645.206,305.068 666.873,305.568 688.5,307C 701.777,310.61 709.944,319.11 713,332.5C 716.268,366.315 701.768,388.315 669.5,398.5C 679.411,415.397 688.411,432.73 696.5,450.5C 684.482,450.832 672.482,450.499 660.5,449.5C 652.333,433.167 644.167,416.833 636,400.5C 632.895,416.857 629.728,433.191 626.5,449.5C 616.856,450.498 607.19,450.832 597.5,450.5C 605.651,402.08 614.317,353.746 623.5,305.5 Z M 648.5,333.5 C 654.842,333.334 661.175,333.5 667.5,334C 678.946,335.1 684.113,341.267 683,352.5C 680.573,362.593 674.406,369.093 664.5,372C 656.881,373.205 649.214,373.705 641.5,373.5C 643.319,360.071 645.653,346.737 648.5,333.5 Z"/></g>
<g><path style="opacity:1" fill="#364454" d="M 625.5,307.5 C 646.207,307.072 666.873,307.572 687.5,309C 700.446,312.279 708.279,320.446 711,333.5C 713.561,367.082 698.727,388.416 666.5,397.5C 675.5,414.167 684.5,430.833 693.5,447.5C 683.183,448.666 672.849,448.832 662.5,448C 653.794,430.755 644.961,413.588 636,396.5C 635.333,397.167 634.667,397.833 634,398.5C 631,414.833 628,431.167 625,447.5C 616.585,448.483 608.085,448.817 599.5,448.5C 607.911,401.445 616.578,354.445 625.5,307.5 Z M 648.5,333.5 C 645.653,346.737 643.319,360.071 641.5,373.5C 649.214,373.705 656.881,373.205 664.5,372C 674.406,369.093 680.573,362.593 683,352.5C 684.113,341.267 678.946,335.1 667.5,334C 661.175,333.5 654.842,333.334 648.5,333.5 Z"/></g>
<g><path style="opacity:1" fill="#364454" d="M 1174.5,305.5 C 1184.17,305.5 1193.83,305.5 1203.5,305.5C 1201.5,317.5 1199.5,329.5 1197.5,341.5C 1202.5,341.5 1207.5,341.5 1212.5,341.5C 1211.07,349.833 1209.57,358.166 1208,366.5C 1202.45,366.857 1197.12,367.857 1192,369.5C 1186.84,396.455 1182.01,423.455 1177.5,450.5C 1167.83,450.5 1158.17,450.5 1148.5,450.5C 1152.8,422.846 1157.8,395.346 1163.5,368C 1159.51,367.501 1155.51,367.334 1151.5,367.5C 1152.19,358.731 1153.52,350.064 1155.5,341.5C 1159.83,341.5 1164.17,341.5 1168.5,341.5C 1170.37,329.479 1172.37,317.479 1174.5,305.5 Z"/></g>
<g><path style="opacity:0.497" fill="#314554" d="M 346.5,326.5 C 377.84,326.167 409.174,326.5 440.5,327.5C 442.021,334.919 443.855,342.252 446,349.5C 450.848,352.926 455.515,356.592 460,360.5C 462,364.167 462,367.833 460,371.5C 440.711,399.459 415.878,420.959 385.5,436C 382.833,436.667 380.167,436.667 377.5,436C 372.032,431.533 366.865,426.7 362,421.5C 361.833,420.333 361.667,419.167 361.5,418C 364.532,406.237 368.365,394.737 373,383.5C 373.667,382.167 373.667,380.833 373,379.5C 365.622,373.634 358.622,367.301 352,360.5C 349.873,352.201 347.873,343.868 346,335.5C 345.264,332.408 345.431,329.408 346.5,326.5 Z"/></g>
<g><path style="opacity:1" fill="#364554" d="M 347.5,328.5 C 377.835,328.333 408.168,328.5 438.5,329C 440.121,335.435 441.621,341.935 443,348.5C 444.122,350.624 445.622,352.457 447.5,354C 451.278,356.112 454.778,358.612 458,361.5C 460,364.5 460,367.5 458,370.5C 439.041,398.129 414.541,419.295 384.5,434C 382.5,434.667 380.5,434.667 378.5,434C 373.366,429.867 368.532,425.367 364,420.5C 363.833,419.667 363.667,418.833 363.5,418C 367.046,405.362 371.379,393.028 376.5,381C 369.356,373.524 361.856,366.357 354,359.5C 351.254,349.272 349.088,338.938 347.5,328.5 Z"/></g>
<g><path style="opacity:0.498" fill="#324454" d="M 767.5,339.5 C 786.125,336.311 802.291,340.977 816,353.5C 824.875,365.389 828.208,378.722 826,393.5C 825.593,398.874 824.426,404.04 822.5,409C 794.833,409.333 767.167,409.667 739.5,410C 743.346,421.325 751.346,427.158 763.5,427.5C 772.544,427.544 780.211,424.377 786.5,418C 797.161,417.5 807.828,417.333 818.5,417.5C 817.85,421.14 816.35,424.473 814,427.5C 794.262,450.966 769.429,458.799 739.5,451C 720.004,443.209 710.004,428.709 709.5,407.5C 712.723,370.953 732.056,348.287 767.5,339.5 Z M 770.5,365.5 C 779.924,364.559 788.09,367.226 795,373.5C 797.083,376.748 798.583,380.248 799.5,384C 781.167,384.667 762.833,384.667 744.5,384C 750.567,374.088 759.234,367.922 770.5,365.5 Z"/></g>
<g><path style="opacity:0.498" fill="#334454" d="M 897.5,339.5 C 907.233,339.109 916.9,339.609 926.5,341C 949.036,350.22 958.536,367.053 955,391.5C 951.977,418.169 938.477,437.335 914.5,449C 900.044,454.121 885.377,454.788 870.5,451C 866.581,449.46 863.081,447.293 860,444.5C 856.738,458.735 853.905,473.069 851.5,487.5C 841.833,487.5 832.167,487.5 822.5,487.5C 831.266,439.167 840.1,390.833 849,342.5C 857.749,341.516 866.582,341.183 875.5,341.5C 875.457,344.587 875.29,347.587 875,350.5C 881.85,345.324 889.35,341.657 897.5,339.5 Z M 898.5,365.5 C 918.103,365.938 926.936,375.938 925,395.5C 920.172,416.01 907.339,426.51 886.5,427C 867.877,420.583 862.044,408.083 869,389.5C 874.877,376.44 884.711,368.44 898.5,365.5 Z"/></g>
<g><path style="opacity:0.497" fill="#314554" d="M 1018.5,339.5 C 1038.89,335.909 1056.06,341.576 1070,356.5C 1085.64,387.475 1080.47,414.641 1054.5,438C 1034.27,453.641 1011.93,457.641 987.5,450C 965.137,437.625 956.637,418.792 962,393.5C 970.302,364.362 989.136,346.362 1018.5,339.5 Z M 1022.5,365.5 C 1041.92,366.753 1050.75,377.086 1049,396.5C 1043.33,415.897 1030.5,426.064 1010.5,427C 994.799,422.773 988.299,412.606 991,396.5C 995.449,379.884 1005.95,369.55 1022.5,365.5 Z"/></g>
<g><path style="opacity:1" fill="#364454" d="M 1141.5,338.5 C 1145.17,338.5 1148.83,338.5 1152.5,338.5C 1151.33,347.543 1149.83,356.543 1148,365.5C 1135.71,366.309 1127.04,372.309 1122,383.5C 1117.25,405.734 1113.09,428.068 1109.5,450.5C 1099.83,450.5 1090.17,450.5 1080.5,450.5C 1086.68,414.455 1093.18,378.455 1100,342.5C 1108.75,341.516 1117.58,341.183 1126.5,341.5C 1125.81,347.599 1127.15,348.099 1130.5,343C 1134.16,341.178 1137.82,339.678 1141.5,338.5 Z"/></g>
<g><path style="opacity:1" fill="#364454" d="M 768.5,341.5 C 785.861,338.727 801.027,343.06 814,354.5C 822.631,365.732 825.964,378.399 824,392.5C 823.357,397.545 822.524,402.545 821.5,407.5C 793.831,407.333 766.165,407.5 738.5,408C 738.217,415.783 741.551,421.783 748.5,426C 762.816,432.061 775.816,430.061 787.5,420C 797.167,419.333 806.833,419.333 816.5,420C 799.014,446.173 774.68,456.173 743.5,450C 720.613,442.076 710.113,425.909 712,401.5C 717.692,368.978 736.525,348.978 768.5,341.5 Z M 770.5,365.5 C 759.234,367.922 750.567,374.088 744.5,384C 762.833,384.667 781.167,384.667 799.5,384C 798.583,380.248 797.083,376.748 795,373.5C 788.09,367.226 779.924,364.559 770.5,365.5 Z"/></g>
<g><path style="opacity:1" fill="#364554" d="M 898.5,341.5 C 939.422,338.253 957.255,356.92 952,397.5C 942.319,435.752 917.819,453.585 878.5,451C 870.91,449.456 864.41,445.956 859,440.5C 855.258,454.6 852.258,468.933 850,483.5C 845.923,484.798 841.589,485.464 837,485.5C 832.833,485.333 828.667,485.167 824.5,485C 833.864,437.987 842.53,390.82 850.5,343.5C 858.167,343.5 865.833,343.5 873.5,343.5C 873.41,345.696 873.077,347.863 872.5,350C 872.509,351.404 873.009,352.57 874,353.5C 881.516,347.991 889.683,343.991 898.5,341.5 Z M 898.5,365.5 C 884.711,368.44 874.877,376.44 869,389.5C 862.044,408.083 867.877,420.583 886.5,427C 907.339,426.51 920.172,416.01 925,395.5C 926.936,375.938 918.103,365.938 898.5,365.5 Z"/></g>
<g><path style="opacity:1" fill="#364554" d="M 1019.5,341.5 C 1053.98,337.37 1073.31,352.37 1077.5,386.5C 1073.95,421.554 1054.95,443.054 1020.5,451C 1000.82,454.661 984.317,449.161 971,434.5C 959.665,414.434 959.998,394.434 972,374.5C 983.328,357.004 999.161,346.004 1019.5,341.5 Z M 1022.5,365.5 C 1005.95,369.55 995.449,379.884 991,396.5C 988.299,412.606 994.799,422.773 1010.5,427C 1030.5,426.064 1043.33,415.897 1049,396.5C 1050.75,377.086 1041.92,366.753 1022.5,365.5 Z"/></g>
<g><path style="opacity:0.506" fill="#314554" d="M 897.5,363.5 C 919.441,363.61 929.275,374.61 927,396.5C 921.567,418.285 907.733,429.118 885.5,429C 865.723,421.936 859.556,408.436 867,388.5C 873.202,375.114 883.369,366.781 897.5,363.5 Z M 898.5,365.5 C 884.711,368.44 874.877,376.44 869,389.5C 862.044,408.083 867.877,420.583 886.5,427C 907.339,426.51 920.172,416.01 925,395.5C 926.936,375.938 918.103,365.938 898.5,365.5 Z"/></g>
<g><path style="opacity:0.506" fill="#314554" d="M 1021.5,363.5 C 1043.26,364.429 1053.09,375.762 1051,397.5C 1047.07,412.424 1037.91,422.59 1023.5,428C 1006.5,431.919 995,425.752 989,409.5C 986.892,391.215 993.726,377.382 1009.5,368C 1013.57,366.37 1017.57,364.87 1021.5,363.5 Z M 1022.5,365.5 C 1005.95,369.55 995.449,379.884 991,396.5C 988.299,412.606 994.799,422.773 1010.5,427C 1030.5,426.064 1043.33,415.897 1049,396.5C 1050.75,377.086 1041.92,366.753 1022.5,365.5 Z"/></g>
</svg>
